<?xml version="1.0" encoding="UTF-8"?>
<!-- Generated with MathJax 3.2.2 -->
<svg xmlns="http://www.w3.org/2000/svg" width="74.430ex" height="10.817ex" viewBox="-250 -2640.6 32898.4 4781.2" xmlns:xlink="http://www.w3.org/1999/xlink">
<rect id="dark-mode-bg" x="-250" y="-2640.6" width="32898.4" height="4781.2" fill="#fff"/><defs><path id="MJX-8-TEX-N-6D" d="M41 46H55Q94 46 102 60V68Q102 77 102 91T102 122T103 161T103 203Q103 234 103 269T102 328V351Q99 370 88 376T43 385H25V408Q25 431 27 431L37 432Q47 433 65 434T102 436Q119 437 138 438T167 441T178 442H181V402Q181 364 182 364T187 369T199 384T218 402T247 421T285 437Q305 442 336 442Q351 442 364 440T387 434T406 426T421 417T432 406T441 395T448 384T452 374T455 366L457 361L460 365Q463 369 466 373T475 384T488 397T503 410T523 422T546 432T572 439T603 442Q729 442 740 329Q741 322 741 190V104Q741 66 743 59T754 49Q775 46 803 46H819V0H811L788 1Q764 2 737 2T699 3Q596 3 587 0H579V46H595Q656 46 656 62Q657 64 657 200Q656 335 655 343Q649 371 635 385T611 402T585 404Q540 404 506 370Q479 343 472 315T464 232V168V108Q464 78 465 68T468 55T477 49Q498 46 526 46H542V0H534L510 1Q487 2 460 2T422 3Q319 3 310 0H302V46H318Q379 46 379 62Q380 64 380 200Q379 335 378 343Q372 371 358 385T334 402T308 404Q263 404 229 370Q202 343 195 315T187 232V168V108Q187 78 188 68T191 55T200 49Q221 46 249 46H265V0H257L234 1Q210 2 183 2T145 3Q42 3 33 0H25V46H41Z"></path><path id="MJX-8-TEX-N-65" d="M28 218Q28 273 48 318T98 391T163 433T229 448Q282 448 320 430T378 380T406 316T415 245Q415 238 408 231H126V216Q126 68 226 36Q246 30 270 30Q312 30 342 62Q359 79 369 104L379 128Q382 131 395 131H398Q415 131 415 121Q415 117 412 108Q393 53 349 21T250 -11Q155 -11 92 58T28 218ZM333 275Q322 403 238 411H236Q228 411 220 410T195 402T166 381T143 340T127 274V267H333V275Z"></path><path id="MJX-8-TEX-N-64" d="M376 495Q376 511 376 535T377 568Q377 613 367 624T316 637H298V660Q298 683 300 683L310 684Q320 685 339 686T376 688Q393 689 413 690T443 693T454 694H457V390Q457 84 458 81Q461 61 472 55T517 46H535V0Q533 0 459 -5T380 -11H373V44L365 37Q307 -11 235 -11Q158 -11 96 50T34 215Q34 315 97 378T244 442Q319 442 376 393V495ZM373 342Q328 405 260 405Q211 405 173 369Q146 341 139 305T131 211Q131 155 138 120T173 59Q203 26 251 26Q322 26 373 103V342Z"></path><path id="MJX-8-TEX-N-69" d="M69 609Q69 637 87 653T131 669Q154 667 171 652T188 609Q188 579 171 564T129 549Q104 549 87 564T69 609ZM247 0Q232 3 143 3Q132 3 106 3T56 1L34 0H26V46H42Q70 46 91 49Q100 53 102 60T104 102V205V293Q104 345 102 359T88 378Q74 385 41 385H30V408Q30 431 32 431L42 432Q52 433 70 434T106 436Q123 437 142 438T171 441T182 442H185V62Q190 52 197 50T232 46H255V0H247Z"></path><path id="MJX-8-TEX-N-61" d="M137 305T115 305T78 320T63 359Q63 394 97 421T218 448Q291 448 336 416T396 340Q401 326 401 309T402 194V124Q402 76 407 58T428 40Q443 40 448 56T453 109V145H493V106Q492 66 490 59Q481 29 455 12T400 -6T353 12T329 54V58L327 55Q325 52 322 49T314 40T302 29T287 17T269 6T247 -2T221 -8T190 -11Q130 -11 82 20T34 107Q34 128 41 147T68 188T116 225T194 253T304 268H318V290Q318 324 312 340Q290 411 215 411Q197 411 181 410T156 406T148 403Q170 388 170 359Q170 334 154 320ZM126 106Q126 75 150 51T209 26Q247 26 276 49T315 109Q317 116 318 175Q318 233 317 233Q309 233 296 232T251 223T193 203T147 166T126 106Z"></path><path id="MJX-8-TEX-N-6E" d="M41 46H55Q94 46 102 60V68Q102 77 102 91T102 122T103 161T103 203Q103 234 103 269T102 328V351Q99 370 88 376T43 385H25V408Q25 431 27 431L37 432Q47 433 65 434T102 436Q119 437 138 438T167 441T178 442H181V402Q181 364 182 364T187 369T199 384T218 402T247 421T285 437Q305 442 336 442Q450 438 463 329Q464 322 464 190V104Q464 66 466 59T477 49Q498 46 526 46H542V0H534L510 1Q487 2 460 2T422 3Q319 3 310 0H302V46H318Q379 46 379 62Q380 64 380 200Q379 335 378 343Q372 371 358 385T334 402T308 404Q263 404 229 370Q202 343 195 315T187 232V168V108Q187 78 188 68T191 55T200 49Q221 46 249 46H265V0H257L234 1Q210 2 183 2T145 3Q42 3 33 0H25V46H41Z"></path><path id="MJX-8-TEX-N-3D" d="M56 347Q56 360 70 367H707Q722 359 722 347Q722 336 708 328L390 327H72Q56 332 56 347ZM56 153Q56 168 72 173H708Q722 163 722 153Q722 140 707 133H70Q56 140 56 153Z"></path><path id="MJX-8-TEX-S4-23A7" d="M712 899L718 893V876V865Q718 854 704 846Q627 793 577 710T510 525Q510 524 509 521Q505 493 504 349Q504 345 504 334Q504 277 504 240Q504 -2 503 -4Q502 -8 494 -9T444 -10Q392 -10 390 -9Q387 -8 386 -5Q384 5 384 230Q384 262 384 312T383 382Q383 481 392 535T434 656Q510 806 664 892L677 899H712Z"></path><path id="MJX-8-TEX-S4-23A9" d="M718 -893L712 -899H677L666 -893Q542 -825 468 -714T385 -476Q384 -466 384 -282Q384 3 385 5L389 9Q392 10 444 10Q486 10 494 9T503 4Q504 2 504 -239V-310V-366Q504 -470 508 -513T530 -609Q546 -657 569 -698T617 -767T661 -812T699 -843T717 -856T718 -876V-893Z"></path><path id="MJX-8-TEX-S4-23A8" d="M389 1159Q391 1160 455 1160Q496 1160 498 1159Q501 1158 502 1155Q504 1145 504 924Q504 691 503 682Q494 549 425 439T243 259L229 250L243 241Q349 175 421 66T503 -182Q504 -191 504 -424Q504 -600 504 -629T499 -659H498Q496 -660 444 -660T390 -659Q387 -658 386 -655Q384 -645 384 -425V-282Q384 -176 377 -116T342 10Q325 54 301 92T255 155T214 196T183 222T171 232Q170 233 170 250T171 268Q171 269 191 284T240 331T300 407T354 524T383 679Q384 691 384 925Q384 1152 385 1155L389 1159Z"></path><path id="MJX-8-TEX-S4-23AA" d="M384 150V266Q384 304 389 309Q391 310 455 310Q496 310 498 309Q502 308 503 298Q504 283 504 150Q504 32 504 12T499 -9H498Q496 -10 444 -10T390 -9Q386 -8 385 2Q384 17 384 150Z"></path><path id="MJX-8-TEX-I-1D465" d="M52 289Q59 331 106 386T222 442Q257 442 286 424T329 379Q371 442 430 442Q467 442 494 420T522 361Q522 332 508 314T481 292T458 288Q439 288 427 299T415 328Q415 374 465 391Q454 404 425 404Q412 404 406 402Q368 386 350 336Q290 115 290 78Q290 50 306 38T341 26Q378 26 414 59T463 140Q466 150 469 151T485 153H489Q504 153 504 145Q504 144 502 134Q486 77 440 33T333 -11Q263 -11 227 52Q186 -10 133 -10H127Q78 -10 57 16T35 71Q35 103 54 123T99 143Q142 143 142 101Q142 81 130 66T107 46T94 41L91 40Q91 39 97 36T113 29T132 26Q168 26 194 71Q203 87 217 139T245 247T261 313Q266 340 266 352Q266 380 251 392T217 404Q177 404 142 372T93 290Q91 281 88 280T72 278H58Q52 284 52 289Z"></path><path id="MJX-8-TEX-SO-28" d="M152 251Q152 646 388 850H416Q422 844 422 841Q422 837 403 816T357 753T302 649T255 482T236 250Q236 124 255 19T301 -147T356 -251T403 -315T422 -340Q422 -343 416 -349H388Q359 -325 332 -296T271 -213T212 -97T170 56T152 251Z"></path><path id="MJX-8-TEX-I-1D45B" d="M21 287Q22 293 24 303T36 341T56 388T89 425T135 442Q171 442 195 424T225 390T231 369Q231 367 232 367L243 378Q304 442 382 442Q436 442 469 415T503 336T465 179T427 52Q427 26 444 26Q450 26 453 27Q482 32 505 65T540 145Q542 153 560 153Q580 153 580 145Q580 144 576 130Q568 101 554 73T508 17T439 -10Q392 -10 371 17T350 73Q350 92 386 193T423 345Q423 404 379 404H374Q288 404 229 303L222 291L189 157Q156 26 151 16Q138 -11 108 -11Q95 -11 87 -5T76 7T74 17Q74 30 112 180T152 343Q153 348 153 366Q153 405 129 405Q91 405 66 305Q60 285 60 284Q58 278 41 278H27Q21 284 21 287Z"></path><path id="MJX-8-TEX-N-2B" d="M56 237T56 250T70 270H369V420L370 570Q380 583 389 583Q402 583 409 568V270H707Q722 262 722 250T707 230H409V-68Q401 -82 391 -82H389H387Q375 -82 369 -68V230H70Q56 237 56 250Z"></path><path id="MJX-8-TEX-N-31" d="M213 578L200 573Q186 568 160 563T102 556H83V602H102Q149 604 189 617T245 641T273 663Q275 666 285 666Q294 666 302 660V361L303 61Q310 54 315 52T339 48T401 46H427V0H416Q395 3 257 3Q121 3 100 0H88V46H114Q136 46 152 46T177 47T193 50T201 52T207 57T213 61V578Z"></path><path id="MJX-8-TEX-N-32" d="M109 429Q82 429 66 447T50 491Q50 562 103 614T235 666Q326 666 387 610T449 465Q449 422 429 383T381 315T301 241Q265 210 201 149L142 93L218 92Q375 92 385 97Q392 99 409 186V189H449V186Q448 183 436 95T421 3V0H50V19V31Q50 38 56 46T86 81Q115 113 136 137Q145 147 170 174T204 211T233 244T261 278T284 308T305 340T320 369T333 401T340 431T343 464Q343 527 309 573T212 619Q179 619 154 602T119 569T109 550Q109 549 114 549Q132 549 151 535T170 489Q170 464 154 447T109 429Z"></path><path id="MJX-8-TEX-SO-29" d="M305 251Q305 -145 69 -349H56Q43 -349 39 -347T35 -338Q37 -333 60 -307T108 -239T160 -136T204 27T221 250T204 473T160 636T108 740T60 807T35 839Q35 850 50 850H56H69Q197 743 256 566Q305 425 305 251Z"></path><path id="MJX-8-TEX-N-66" d="M273 0Q255 3 146 3Q43 3 34 0H26V46H42Q70 46 91 49Q99 52 103 60Q104 62 104 224V385H33V431H104V497L105 564L107 574Q126 639 171 668T266 704Q267 704 275 704T289 705Q330 702 351 679T372 627Q372 604 358 590T321 576T284 590T270 627Q270 647 288 667H284Q280 668 273 668Q245 668 223 647T189 592Q183 572 182 497V431H293V385H185V225Q185 63 186 61T189 57T194 54T199 51T206 49T213 48T222 47T231 47T241 46T251 46H282V0H273Z"></path><path id="MJX-8-TEX-N-A0" d=""></path><path id="MJX-8-TEX-N-73" d="M295 316Q295 356 268 385T190 414Q154 414 128 401Q98 382 98 349Q97 344 98 336T114 312T157 287Q175 282 201 278T245 269T277 256Q294 248 310 236T342 195T359 133Q359 71 321 31T198 -10H190Q138 -10 94 26L86 19L77 10Q71 4 65 -1L54 -11H46H42Q39 -11 33 -5V74V132Q33 153 35 157T45 162H54Q66 162 70 158T75 146T82 119T101 77Q136 26 198 26Q295 26 295 104Q295 133 277 151Q257 175 194 187T111 210Q75 227 54 256T33 318Q33 357 50 384T93 424T143 442T187 447H198Q238 447 268 432L283 424L292 431Q302 440 314 448H322H326Q329 448 335 442V310L329 304H301Q295 310 295 316Z"></path><path id="MJX-8-TEX-N-20" d=""></path><path id="MJX-8-TEX-N-6F" d="M28 214Q28 309 93 378T250 448Q340 448 405 380T471 215Q471 120 407 55T250 -10Q153 -10 91 57T28 214ZM250 30Q372 30 372 193V225V250Q372 272 371 288T364 326T348 362T317 390T268 410Q263 411 252 411Q222 411 195 399Q152 377 139 338T126 246V226Q126 130 145 91Q177 30 250 30Z"></path><path id="MJX-8-TEX-N-28" d="M94 250Q94 319 104 381T127 488T164 576T202 643T244 695T277 729T302 750H315H319Q333 750 333 741Q333 738 316 720T275 667T226 581T184 443T167 250T184 58T225 -81T274 -167T316 -220T333 -241Q333 -250 318 -250H315H302L274 -226Q180 -141 137 -14T94 250Z"></path><path id="MJX-8-TEX-N-74" d="M27 422Q80 426 109 478T141 600V615H181V431H316V385H181V241Q182 116 182 100T189 68Q203 29 238 29Q282 29 292 100Q293 108 293 146V181H333V146V134Q333 57 291 17Q264 -10 221 -10Q187 -10 162 2T124 33T105 68T98 100Q97 107 97 248V385H18V422H27Z"></path><path id="MJX-8-TEX-N-68" d="M41 46H55Q94 46 102 60V68Q102 77 102 91T102 124T102 167T103 217T103 272T103 329Q103 366 103 407T103 482T102 542T102 586T102 603Q99 622 88 628T43 637H25V660Q25 683 27 683L37 684Q47 685 66 686T103 688Q120 689 140 690T170 693T181 694H184V367Q244 442 328 442Q451 442 463 329Q464 322 464 190V104Q464 66 466 59T477 49Q498 46 526 46H542V0H534L510 1Q487 2 460 2T422 3Q319 3 310 0H302V46H318Q379 46 379 62Q380 64 380 200Q379 335 378 343Q372 371 358 385T334 402T308 404Q263 404 229 370Q202 343 195 315T187 232V168V108Q187 78 188 68T191 55T200 49Q221 46 249 46H265V0H257L234 1Q210 2 183 2T145 3Q42 3 33 0H25V46H41Z"></path><path id="MJX-8-TEX-N-6C" d="M42 46H56Q95 46 103 60V68Q103 77 103 91T103 124T104 167T104 217T104 272T104 329Q104 366 104 407T104 482T104 542T103 586T103 603Q100 622 89 628T44 637H26V660Q26 683 28 683L38 684Q48 685 67 686T104 688Q121 689 141 690T171 693T182 694H185V379Q185 62 186 60Q190 52 198 49Q219 46 247 46H263V0H255L232 1Q209 2 183 2T145 3T107 3T57 1L34 0H26V46H42Z"></path><path id="MJX-8-TEX-N-76" d="M338 431Q344 429 422 429Q479 429 503 431H508V385H497Q439 381 423 345Q421 341 356 172T288 -2Q283 -11 263 -11Q244 -11 239 -2Q99 359 98 364Q93 378 82 381T43 385H19V431H25L33 430Q41 430 53 430T79 430T104 429T122 428Q217 428 232 431H240V385H226Q187 384 184 370Q184 366 235 234L286 102L377 341V349Q377 363 367 372T349 383T335 385H331V431H338Z"></path><path id="MJX-8-TEX-N-75" d="M383 58Q327 -10 256 -10H249Q124 -10 105 89Q104 96 103 226Q102 335 102 348T96 369Q86 385 36 385H25V408Q25 431 27 431L38 432Q48 433 67 434T105 436Q122 437 142 438T172 441T184 442H187V261Q188 77 190 64Q193 49 204 40Q224 26 264 26Q290 26 311 35T343 58T363 90T375 120T379 144Q379 145 379 161T380 201T380 248V315Q380 361 370 372T320 385H302V431Q304 431 378 436T457 442H464V264Q464 84 465 81Q468 61 479 55T524 46H542V0Q540 0 467 -5T390 -11H383V58Z"></path><path id="MJX-8-TEX-N-29" d="M60 749L64 750Q69 750 74 750H86L114 726Q208 641 251 514T294 250Q294 182 284 119T261 12T224 -76T186 -143T145 -194T113 -227T90 -246Q87 -249 86 -250H74Q66 -250 63 -250T58 -247T55 -238Q56 -237 66 -225Q221 -64 221 250T66 725Q56 737 55 738Q55 746 60 749Z"></path><path id="MJX-8-TEX-N-72" d="M36 46H50Q89 46 97 60V68Q97 77 97 91T98 122T98 161T98 203Q98 234 98 269T98 328L97 351Q94 370 83 376T38 385H20V408Q20 431 22 431L32 432Q42 433 60 434T96 436Q112 437 131 438T160 441T171 442H174V373Q213 441 271 441H277Q322 441 343 419T364 373Q364 352 351 337T313 322Q288 322 276 338T263 372Q263 381 265 388T270 400T273 405Q271 407 250 401Q234 393 226 386Q179 341 179 207V154Q179 141 179 127T179 101T180 81T180 66V61Q181 59 183 57T188 54T193 51T200 49T207 48T216 47T225 47T235 46T245 46H276V0H267Q249 3 140 3Q37 3 28 0H20V46H36Z"></path><path id="MJX-8-TEX-N-67" d="M329 409Q373 453 429 453Q459 453 472 434T485 396Q485 382 476 371T449 360Q416 360 412 390Q410 404 415 411Q415 412 416 414V415Q388 412 363 393Q355 388 355 386Q355 385 359 381T368 369T379 351T388 325T392 292Q392 230 343 187T222 143Q172 143 123 171Q112 153 112 133Q112 98 138 81Q147 75 155 75T227 73Q311 72 335 67Q396 58 431 26Q470 -13 470 -72Q470 -139 392 -175Q332 -206 250 -206Q167 -206 107 -175Q29 -140 29 -75Q29 -39 50 -15T92 18L103 24Q67 55 67 108Q67 155 96 193Q52 237 52 292Q52 355 102 398T223 442Q274 442 318 416L329 409ZM299 343Q294 371 273 387T221 404Q192 404 171 388T145 343Q142 326 142 292Q142 248 149 227T179 192Q196 182 222 182Q244 182 260 189T283 207T294 227T299 242Q302 258 302 292T299 343ZM403 -75Q403 -50 389 -34T348 -11T299 -2T245 0H218Q151 0 138 -6Q118 -15 107 -34T95 -74Q95 -84 101 -97T122 -127T170 -155T250 -167Q319 -167 361 -139T403 -75Z"></path><path id="MJX-8-TEX-N-77" d="M90 368Q84 378 76 380T40 385H18V431H24L43 430Q62 430 84 429T116 428Q206 428 221 431H229V385H215Q177 383 177 368Q177 367 221 239L265 113L339 328L333 345Q323 374 316 379Q308 384 278 385H258V431H264Q270 428 348 428Q439 428 454 431H461V385H452Q404 385 404 369Q404 366 418 324T449 234T481 143L496 100L537 219Q579 341 579 347Q579 363 564 373T530 385H522V431H529Q541 428 624 428Q692 428 698 431H703V385H697Q696 385 691 385T682 384Q635 377 619 334L559 161Q546 124 528 71Q508 12 503 1T487 -11H479Q460 -11 456 -4Q455 -3 407 133L361 267Q359 263 266 -4Q261 -11 243 -11H238Q225 -11 220 -3L90 368Z"></path></defs><g stroke="#000" fill="#000" stroke-width="0" transform="scale(1,-1)"><g data-mml-node="math"><g data-mml-node="mtext"><use data-c="6D" xlink:href="#MJX-8-TEX-N-6D"></use><use data-c="65" xlink:href="#MJX-8-TEX-N-65" transform="translate(833,0)"></use><use data-c="64" xlink:href="#MJX-8-TEX-N-64" transform="translate(1277,0)"></use><use data-c="69" xlink:href="#MJX-8-TEX-N-69" transform="translate(1833,0)"></use><use data-c="61" xlink:href="#MJX-8-TEX-N-61" transform="translate(2111,0)"></use><use data-c="6E" xlink:href="#MJX-8-TEX-N-6E" transform="translate(2611,0)"></use></g><g data-mml-node="mo" transform="translate(3444.8,0)"><use data-c="3D" xlink:href="#MJX-8-TEX-N-3D"></use></g><g data-mml-node="mrow" transform="translate(4500.6,0)"><g data-mml-node="mo"><use data-c="23A7" xlink:href="#MJX-8-TEX-S4-23A7" transform="translate(0,1491.6)"></use><use data-c="23A9" xlink:href="#MJX-8-TEX-S4-23A9" transform="translate(0,-991.6)"></use><use data-c="23A8" xlink:href="#MJX-8-TEX-S4-23A8" transform="translate(0,0)"></use><svg width="889" height="521.6" y="1060" x="0" viewBox="0 91.9 889 521.6"><use data-c="23AA" xlink:href="#MJX-8-TEX-S4-23AA" transform="scale(1,2.565)"></use></svg><svg width="889" height="521.6" y="-1081.6" x="0" viewBox="0 91.9 889 521.6"><use data-c="23AA" xlink:href="#MJX-8-TEX-S4-23AA" transform="scale(1,2.565)"></use></svg></g><g data-mml-node="mtable" transform="translate(889,0)"><g data-mml-node="mtr" transform="translate(0,1640.6)"><g data-mml-node="mtd"><g data-mml-node="msub"><g data-mml-node="mi"><use data-c="1D465" xlink:href="#MJX-8-TEX-I-1D465"></use></g><g data-mml-node="TeXAtom" transform="translate(605,-260.8) scale(0.707)" data-mjx-texclass="ORD"><g data-mml-node="mrow"><g data-mml-node="mo" transform="translate(0 -0.5)"><use data-c="28" xlink:href="#MJX-8-TEX-SO-28"></use></g><g data-mml-node="mfrac" transform="translate(458,0)"><g data-mml-node="mrow" transform="translate(220,398) scale(0.707)"><g data-mml-node="mi"><use data-c="1D45B" xlink:href="#MJX-8-TEX-I-1D45B"></use></g><g data-mml-node="mo" transform="translate(600,0)"><use data-c="2B" xlink:href="#MJX-8-TEX-N-2B"></use></g><g data-mml-node="mn" transform="translate(1378,0)"><use data-c="31" xlink:href="#MJX-8-TEX-N-31"></use></g></g><g data-mml-node="mn" transform="translate(707.2,-345) scale(0.707)"><use data-c="32" xlink:href="#MJX-8-TEX-N-32"></use></g><rect width="1527.9" height="60" x="120" y="220"></rect></g><g data-mml-node="mo" transform="translate(2225.9,0) translate(0 -0.5)"><use data-c="29" xlink:href="#MJX-8-TEX-SO-29"></use></g></g></g></g></g><g data-mml-node="mtd" transform="translate(7393.8,0)"><g data-mml-node="mtext"><use data-c="69" xlink:href="#MJX-8-TEX-N-69"></use><use data-c="66" xlink:href="#MJX-8-TEX-N-66" transform="translate(278,0)"></use><use data-c="A0" xlink:href="#MJX-8-TEX-N-A0" transform="translate(584,0)"></use></g><g data-mml-node="mi" transform="translate(834,0)"><use data-c="1D45B" xlink:href="#MJX-8-TEX-I-1D45B"></use></g><g data-mml-node="mtext" transform="translate(1434,0)"><use data-c="A0" xlink:href="#MJX-8-TEX-N-A0"></use><use data-c="69" xlink:href="#MJX-8-TEX-N-69" transform="translate(250,0)"></use><use data-c="73" xlink:href="#MJX-8-TEX-N-73" transform="translate(528,0)"></use><use data-c="20" xlink:href="#MJX-8-TEX-N-20" transform="translate(922,0)"></use><use data-c="6F" xlink:href="#MJX-8-TEX-N-6F" transform="translate(1172,0)"></use><use data-c="64" xlink:href="#MJX-8-TEX-N-64" transform="translate(1672,0)"></use><use data-c="64" xlink:href="#MJX-8-TEX-N-64" transform="translate(2228,0)"></use><use data-c="20" xlink:href="#MJX-8-TEX-N-20" transform="translate(2784,0)"></use><use data-c="28" xlink:href="#MJX-8-TEX-N-28" transform="translate(3034,0)"></use><use data-c="74" xlink:href="#MJX-8-TEX-N-74" transform="translate(3423,0)"></use><use data-c="68" xlink:href="#MJX-8-TEX-N-68" transform="translate(3812,0)"></use><use data-c="65" xlink:href="#MJX-8-TEX-N-65" transform="translate(4368,0)"></use><use data-c="20" xlink:href="#MJX-8-TEX-N-20" transform="translate(4812,0)"></use><use data-c="6D" xlink:href="#MJX-8-TEX-N-6D" transform="translate(5062,0)"></use><use data-c="69" xlink:href="#MJX-8-TEX-N-69" transform="translate(5895,0)"></use><use data-c="64" xlink:href="#MJX-8-TEX-N-64" transform="translate(6173,0)"></use><use data-c="64" xlink:href="#MJX-8-TEX-N-64" transform="translate(6729,0)"></use><use data-c="6C" xlink:href="#MJX-8-TEX-N-6C" transform="translate(7285,0)"></use><use data-c="65" xlink:href="#MJX-8-TEX-N-65" transform="translate(7563,0)"></use><use data-c="20" xlink:href="#MJX-8-TEX-N-20" transform="translate(8007,0)"></use><use data-c="76" xlink:href="#MJX-8-TEX-N-76" transform="translate(8257,0)"></use><use data-c="61" xlink:href="#MJX-8-TEX-N-61" transform="translate(8785,0)"></use><use data-c="6C" xlink:href="#MJX-8-TEX-N-6C" transform="translate(9285,0)"></use><use data-c="75" xlink:href="#MJX-8-TEX-N-75" transform="translate(9563,0)"></use><use data-c="65" xlink:href="#MJX-8-TEX-N-65" transform="translate(10119,0)"></use><use data-c="29" xlink:href="#MJX-8-TEX-N-29" transform="translate(10563,0)"></use></g></g></g><g data-mml-node="mtr" transform="translate(0,-1204.6)"><g data-mml-node="mtd"><g data-mml-node="mstyle"><g data-mml-node="mfrac"><g data-mml-node="mrow" transform="translate(220,954.2)"><g data-mml-node="msub"><g data-mml-node="mi"><use data-c="1D465" xlink:href="#MJX-8-TEX-I-1D465"></use></g><g data-mml-node="TeXAtom" transform="translate(605,-247.1) scale(0.707)" data-mjx-texclass="ORD"><g data-mml-node="mrow"><g data-mml-node="mo" transform="translate(0 -0.5)"><use data-c="28" xlink:href="#MJX-8-TEX-SO-28"></use></g><g data-mml-node="mfrac" transform="translate(458,0)"><g data-mml-node="mi" transform="translate(220,394) scale(0.707)"><use data-c="1D45B" xlink:href="#MJX-8-TEX-I-1D45B"></use></g><g data-mml-node="mn" transform="translate(255.4,-345) scale(0.707)"><use data-c="32" xlink:href="#MJX-8-TEX-N-32"></use></g><rect width="624.3" height="60" x="120" y="220"></rect></g><g data-mml-node="mo" transform="translate(1322.3,0) translate(0 -0.5)"><use data-c="29" xlink:href="#MJX-8-TEX-SO-29"></use></g></g></g></g><g data-mml-node="mo" transform="translate(2136.1,0)"><use data-c="2B" xlink:href="#MJX-8-TEX-N-2B"></use></g><g data-mml-node="msub" transform="translate(3136.3,0)"><g data-mml-node="mi"><use data-c="1D465" xlink:href="#MJX-8-TEX-I-1D465"></use></g><g data-mml-node="TeXAtom" transform="translate(605,-247.1) scale(0.707)" data-mjx-texclass="ORD"><g data-mml-node="mrow"><g data-mml-node="mo" transform="translate(0 -0.5)"><use data-c="28" xlink:href="#MJX-8-TEX-SO-28"></use></g><g data-mml-node="mfrac" transform="translate(458,0)"><g data-mml-node="mi" transform="translate(220,394) scale(0.707)"><use data-c="1D45B" xlink:href="#MJX-8-TEX-I-1D45B"></use></g><g data-mml-node="mn" transform="translate(255.4,-345) scale(0.707)"><use data-c="32" xlink:href="#MJX-8-TEX-N-32"></use></g><rect width="624.3" height="60" x="120" y="220"></rect></g><g data-mml-node="mo" transform="translate(1322.3,0)"><use data-c="2B" xlink:href="#MJX-8-TEX-N-2B"></use></g><g data-mml-node="mn" transform="translate(2100.3,0)"><use data-c="31" xlink:href="#MJX-8-TEX-N-31"></use></g><g data-mml-node="mo" transform="translate(2600.3,0) translate(0 -0.5)"><use data-c="29" xlink:href="#MJX-8-TEX-SO-29"></use></g></g></g></g></g><g data-mml-node="mn" transform="translate(2946.9,-686)"><use data-c="32" xlink:href="#MJX-8-TEX-N-32"></use></g><rect width="6153.8" height="60" x="120" y="220"></rect></g></g></g><g data-mml-node="mtd" transform="translate(7393.8,0)"><g data-mml-node="mtext"><use data-c="69" xlink:href="#MJX-8-TEX-N-69"></use><use data-c="66" xlink:href="#MJX-8-TEX-N-66" transform="translate(278,0)"></use><use data-c="A0" xlink:href="#MJX-8-TEX-N-A0" transform="translate(584,0)"></use></g><g data-mml-node="mi" transform="translate(834,0)"><use data-c="1D45B" xlink:href="#MJX-8-TEX-I-1D45B"></use></g><g data-mml-node="mtext" transform="translate(1434,0)"><use data-c="A0" xlink:href="#MJX-8-TEX-N-A0"></use><use data-c="69" xlink:href="#MJX-8-TEX-N-69" transform="translate(250,0)"></use><use data-c="73" xlink:href="#MJX-8-TEX-N-73" transform="translate(528,0)"></use><use data-c="20" xlink:href="#MJX-8-TEX-N-20" transform="translate(922,0)"></use><use data-c="65" xlink:href="#MJX-8-TEX-N-65" transform="translate(1172,0)"></use><use data-c="76" xlink:href="#MJX-8-TEX-N-76" transform="translate(1616,0)"></use><use data-c="65" xlink:href="#MJX-8-TEX-N-65" transform="translate(2144,0)"></use><use data-c="6E" xlink:href="#MJX-8-TEX-N-6E" transform="translate(2588,0)"></use><use data-c="20" xlink:href="#MJX-8-TEX-N-20" transform="translate(3144,0)"></use><use data-c="28" xlink:href="#MJX-8-TEX-N-28" transform="translate(3394,0)"></use><use data-c="61" xlink:href="#MJX-8-TEX-N-61" transform="translate(3783,0)"></use><use data-c="76" xlink:href="#MJX-8-TEX-N-76" transform="translate(4283,0)"></use><use data-c="65" xlink:href="#MJX-8-TEX-N-65" transform="translate(4811,0)"></use><use data-c="72" xlink:href="#MJX-8-TEX-N-72" transform="translate(5255,0)"></use><use data-c="61" xlink:href="#MJX-8-TEX-N-61" transform="translate(5647,0)"></use><use data-c="67" xlink:href="#MJX-8-TEX-N-67" transform="translate(6147,0)"></use><use data-c="65" xlink:href="#MJX-8-TEX-N-65" transform="translate(6647,0)"></use><use data-c="20" xlink:href="#MJX-8-TEX-N-20" transform="translate(7091,0)"></use><use data-c="6F" xlink:href="#MJX-8-TEX-N-6F" transform="translate(7341,0)"></use><use data-c="66" xlink:href="#MJX-8-TEX-N-66" transform="translate(7841,0)"></use><use data-c="20" xlink:href="#MJX-8-TEX-N-20" transform="translate(8147,0)"></use><use data-c="74" xlink:href="#MJX-8-TEX-N-74" transform="translate(8397,0)"></use><use data-c="68" xlink:href="#MJX-8-TEX-N-68" transform="translate(8786,0)"></use><use data-c="65" xlink:href="#MJX-8-TEX-N-65" transform="translate(9342,0)"></use><use data-c="20" xlink:href="#MJX-8-TEX-N-20" transform="translate(9786,0)"></use><use data-c="74" xlink:href="#MJX-8-TEX-N-74" transform="translate(10036,0)"></use><use data-c="77" xlink:href="#MJX-8-TEX-N-77" transform="translate(10425,0)"></use><use data-c="6F" xlink:href="#MJX-8-TEX-N-6F" transform="translate(11147,0)"></use><use data-c="20" xlink:href="#MJX-8-TEX-N-20" transform="translate(11647,0)"></use><use data-c="6D" xlink:href="#MJX-8-TEX-N-6D" transform="translate(11897,0)"></use><use data-c="69" xlink:href="#MJX-8-TEX-N-69" transform="translate(12730,0)"></use><use data-c="64" xlink:href="#MJX-8-TEX-N-64" transform="translate(13008,0)"></use><use data-c="64" xlink:href="#MJX-8-TEX-N-64" transform="translate(13564,0)"></use><use data-c="6C" xlink:href="#MJX-8-TEX-N-6C" transform="translate(14120,0)"></use><use data-c="65" xlink:href="#MJX-8-TEX-N-65" transform="translate(14398,0)"></use><use data-c="20" xlink:href="#MJX-8-TEX-N-20" transform="translate(14842,0)"></use><use data-c="76" xlink:href="#MJX-8-TEX-N-76" transform="translate(15092,0)"></use><use data-c="61" xlink:href="#MJX-8-TEX-N-61" transform="translate(15620,0)"></use><use data-c="6C" xlink:href="#MJX-8-TEX-N-6C" transform="translate(16120,0)"></use><use data-c="75" xlink:href="#MJX-8-TEX-N-75" transform="translate(16398,0)"></use><use data-c="65" xlink:href="#MJX-8-TEX-N-65" transform="translate(16954,0)"></use><use data-c="73" xlink:href="#MJX-8-TEX-N-73" transform="translate(17398,0)"></use><use data-c="29" xlink:href="#MJX-8-TEX-N-29" transform="translate(17792,0)"></use></g></g></g></g><g data-mml-node="mo" transform="translate(27897.8,0) translate(0 250)"></g></g></g></g></svg>
